<svg id="Layer_1" data-name="Layer 1" xmlns="http://www.w3.org/2000/svg" xmlns:xlink="http://www.w3.org/1999/xlink" viewBox="0 0 190 190"><defs><style>.cls-1{fill:url(#linear-gradient);}.cls-2{fill:#fff;}</style><linearGradient id="linear-gradient" x1="94.81" y1="1.15" x2="94.81" y2="189.41" gradientUnits="userSpaceOnUse"><stop offset="0" stop-color="#ed246f"/><stop offset="1" stop-color="#56122c"/></linearGradient></defs><title>Artboard 1</title><rect class="cls-1" x="-0.38" y="-0.38" width="190.38" height="190.38"/><path class="cls-2" d="M50.8,34.38q14.06,1.51,14,22.46V89.72H39.72v2.81q0,15,6.71,15,5.87-2.13,5.86-8.5V94.43H65l-.18,7.51-.8,5.63q-4.81,13.14-15.95,13.14H43.05Q26.3,117,26.29,101.94v-31q-.39-26.75,5-32.39T50.8,34.38ZM40,77.5H51.89q2.28-23.41-5.48-24.85T40,77.5Z"/><path class="cls-2" d="M131,38.82,104.27,150.94q-2.11,3.33-9.06,3.45h-25V141.13H86.66q7,0,9.47-11.93h-8L67.89,44.56H85.11l14.75,62.78L113.8,38.82Z"/><path class="cls-2" d="M149.89,113.59a12.27,12.27,0,0,1,9.12,3.79,13,13,0,0,1,0,18.24,12.74,12.74,0,0,1-18.13,0,13,13,0,0,1,0-18.24A12.24,12.24,0,0,1,149.89,113.59Zm-8.95-5.85V23h16.58v84.75Z"/></svg>